HIERARCHY
ROOT joint_0
{
	OFFSET 0.000000 0.000000 0.000000
	CHANNELS 6 Xposition Yposition Zposition Zrotation Yrotation Xrotation 
	JOINT joint_1
	{
		OFFSET 0.587158 0.057678 95.682007
		CHANNELS 3 Zrotation Yrotation Xrotation
		JOINT joint_2
		{
			OFFSET -7.116699 -0.219910 87.157959
			CHANNELS 3 Zrotation Yrotation Xrotation
			JOINT joint_3
			{
				OFFSET -5.892822 -0.290222 87.151001
				CHANNELS 3 Zrotation Yrotation Xrotation
				JOINT joint_4
				{
					OFFSET 5.544678 -0.099609 123.768066
					CHANNELS 3 Zrotation Yrotation Xrotation
					JOINT joint_5
					{
						OFFSET 41.981201 4.519775 84.257935
						CHANNELS 3 Zrotation Yrotation Xrotation
						End Site
						{
							OFFSET 0.000000 0.000000 0.000000
						}
					}
				}
				JOINT joint_6
				{
					OFFSET 3.940918 -26.976501 69.308105
					CHANNELS 3 Zrotation Yrotation Xrotation
					JOINT joint_7
					{
						OFFSET 4.776123 -152.592468 -16.842041
						CHANNELS 3 Zrotation Yrotation Xrotation
						JOINT joint_8
						{
							OFFSET 54.421875 -30.424072 -248.864014
							CHANNELS 3 Zrotation Yrotation Xrotation
							JOINT joint_9
							{
								OFFSET 42.120117 -33.387878 -236.524963
								CHANNELS 3 Zrotation Yrotation Xrotation
								End Site
								{
									OFFSET 0.000000 0.000000 0.000000
								}
							}
						}
					}
				}
				JOINT joint_10
				{
					OFFSET 2.312012 26.904114 69.425049
					CHANNELS 3 Zrotation Yrotation Xrotation
					JOINT joint_11
					{
						OFFSET 0.971436 152.197815 -20.626953
						CHANNELS 3 Zrotation Yrotation Xrotation
						JOINT joint_12
						{
							OFFSET 49.954102 28.991455 -249.970093
							CHANNELS 3 Zrotation Yrotation Xrotation
							JOINT joint_13
							{
								OFFSET 48.146973 19.598389 -236.919922
								CHANNELS 3 Zrotation Yrotation Xrotation
								End Site
								{
									OFFSET 0.000000 0.000000 0.000000
								}
							}
						}
					}
				}
			}
		}
	}
	JOINT joint_14
	{
		OFFSET 16.305664 -89.442932 -108.224976
		CHANNELS 3 Zrotation Yrotation Xrotation
		JOINT joint_15
		{
			OFFSET -22.282471 13.437134 -412.904968
			CHANNELS 3 Zrotation Yrotation Xrotation
			JOINT joint_16
			{
				OFFSET -45.426025 14.484802 -445.892029
				CHANNELS 3 Zrotation Yrotation Xrotation
				JOINT joint_17
				{
					OFFSET 173.389404 -9.944031 -76.473001
					CHANNELS 3 Zrotation Yrotation Xrotation
					End Site
					{
						OFFSET 0.000000 0.000000 0.000000
					}
				}
			}
		}
	}
	JOINT joint_18
	{
		OFFSET 13.392822 89.408875 -108.653992
		CHANNELS 3 Zrotation Yrotation Xrotation
		JOINT joint_19
		{
			OFFSET -29.032959 24.483521 -411.977966
			CHANNELS 3 Zrotation Yrotation Xrotation
			JOINT joint_20
			{
				OFFSET -30.530029 28.986328 -446.453018
				CHANNELS 3 Zrotation Yrotation Xrotation
				JOINT joint_21
				{
					OFFSET 170.330078 33.400757 -76.698997
					CHANNELS 3 Zrotation Yrotation Xrotation
					End Site
					{
						OFFSET 0.000000 0.000000 0.000000
					}
				}
			}
		}
	}
}
MOTION
Frames: 9
Frame Time: 0.016667
-1788.604858 850.447327 1061.151978 5.878839 2.273944 1.289468 -0.272073 -3.635723 -2.253244 -0.030653 0.591799 0.501574 -0.091133 -0.657910 -0.309448 -0.379429 -3.807716 1.133477 0.000000 0.000000 0.000000 -1.538904 2.209453 1.382565 0.189311 2.025250 1.500156 -0.756072 0.845938 -3.485713 0.000000 0.000000 0.000000 -0.615298 2.125627 -0.343398 0.552401 2.265754 1.749812 0.250114 1.059632 0.798223 0.000000 0.000000 0.000000 -0.298228 -1.468895 0.454064 -0.193854 1.069558 0.069342 -0.258726 -1.912992 -0.223354 0.000000 0.000000 0.000000 -1.740879 -3.400303 -3.419705 -1.751485 0.970813 0.520859 -1.718676 0.116181 -0.794820 0.000000 0.000000 0.000000 
-1788.551025 850.430481 1061.149048 5.849897 2.275268 1.288819 -0.267387 -3.657286 -2.254985 -0.025527 0.593281 0.502653 -0.086142 -0.660525 -0.310211 -0.378886 -3.798963 1.131692 0.000000 0.000000 0.000000 -1.545604 2.219355 1.383938 0.193165 2.034609 1.522045 -0.742737 0.794234 -3.454910 0.000000 0.000000 0.000000 -0.610858 2.128381 -0.345856 0.555241 2.268202 1.758666 0.248209 1.041559 0.796223 0.000000 0.000000 0.000000 -0.288065 -1.468345 0.454643 -0.183686 1.068860 0.068988 -0.249095 -1.916101 -0.219294 0.000000 0.000000 0.000000 -1.730556 -3.397063 -3.423099 -1.741935 0.975633 0.529802 -1.709735 0.107872 -0.789179 0.000000 0.000000 0.000000 
-1788.498779 850.397949 1061.151978 5.819435 2.272135 1.290271 -0.263913 -3.680359 -2.262827 -0.020939 0.596942 0.504723 -0.081817 -0.665466 -0.311706 -0.378196 -3.776446 1.128330 0.000000 0.000000 0.000000 -1.547996 2.213319 1.387079 0.203949 2.028345 1.565512 -0.733052 0.747901 -3.439598 0.000000 0.000000 0.000000 -0.611547 2.122481 -0.351363 0.556977 2.262570 1.765535 0.247884 1.026673 0.800826 0.000000 0.000000 0.000000 -0.277240 -1.466197 0.456832 -0.172216 1.074506 0.061416 -0.239207 -1.923436 -0.215363 0.000000 0.000000 0.000000 -1.720064 -3.392542 -3.426577 -1.731689 0.987361 0.536248 -1.700990 0.096057 -0.782939 0.000000 0.000000 0.000000 
-1788.449585 850.355469 1061.157959 5.788370 2.267238 1.292784 -0.260812 -3.703935 -2.275554 -0.016037 0.602167 0.509637 -0.077480 -0.672434 -0.314726 -0.377524 -3.745849 1.124232 0.000000 0.000000 0.000000 -1.549820 2.193385 1.391748 0.219896 2.008083 1.624196 -0.723114 0.696574 -3.426820 0.000000 0.000000 0.000000 -0.618616 2.107697 -0.358144 0.557197 2.248771 1.767962 0.248346 1.011276 0.809590 0.000000 0.000000 0.000000 -0.266127 -1.463243 0.459766 -0.160181 1.082211 0.050341 -0.229256 -1.933705 -0.211572 0.000000 0.000000 0.000000 -1.709524 -3.387985 -3.429869 -1.721065 1.002572 0.541249 -1.692362 0.081996 -0.776312 0.000000 0.000000 0.000000 
-1788.411011 850.319946 1061.161987 5.759307 2.261643 1.294362 -0.259561 -3.720135 -2.283649 -0.013638 0.605925 0.512620 -0.075494 -0.676872 -0.317597 -0.376601 -3.723331 1.120389 0.000000 0.000000 0.000000 -1.548029 2.161618 1.396760 0.236411 1.976240 1.681192 -0.704841 0.623635 -3.385903 0.000000 0.000000 0.000000 -0.622752 2.085295 -0.365663 0.556475 2.226871 1.766644 0.245205 0.978635 0.807506 0.000000 0.000000 0.000000 -0.255819 -1.459333 0.461329 -0.149349 1.088298 0.043604 -0.219930 -1.941886 -0.207937 0.000000 0.000000 0.000000 -1.699282 -3.383748 -3.432261 -1.710593 1.018078 0.545449 -1.683921 0.068396 -0.769859 0.000000 0.000000 0.000000 
-1788.391724 850.297546 1061.161987 5.735699 2.256055 1.294125 -0.261360 -3.723783 -2.284941 -0.015325 0.606922 0.512185 -0.077100 -0.678341 -0.316863 -0.374644 -3.713723 1.115727 0.000000 0.000000 0.000000 -1.544073 2.115938 1.400676 0.251777 1.930589 1.729470 -0.674928 0.526332 -3.301015 0.000000 0.000000 0.000000 -0.623336 2.054151 -0.377293 0.554947 2.195653 1.762179 0.237568 0.923094 0.792457 0.000000 0.000000 0.000000 -0.247235 -1.454888 0.460383 -0.140940 1.091207 0.044851 -0.211939 -1.945788 -0.204645 0.000000 0.000000 0.000000 -1.690416 -3.382973 -3.432688 -1.700871 1.036594 0.548001 -1.676483 0.055149 -0.763926 0.000000 0.000000 0.000000 
-1788.381958 850.281250 1061.161011 5.714568 2.250620 1.293067 -0.264201 -3.721987 -2.283348 -0.018323 0.607111 0.512497 -0.080128 -0.677314 -0.317200 -0.372720 -3.710385 1.111700 0.000000 0.000000 0.000000 -1.540207 2.058760 1.406179 0.267509 1.873252 1.775264 -0.636951 0.408357 -3.188360 0.000000 0.000000 0.000000 -0.625093 2.015278 -0.389866 0.552534 2.156781 1.754340 0.226472 0.850843 0.767124 0.000000 0.000000 0.000000 -0.239646 -1.450258 0.457898 -0.133924 1.092310 0.050673 -0.204714 -1.946953 -0.201533 0.000000 0.000000 0.000000 -1.682255 -3.383676 -3.432027 -1.691592 1.055680 0.549451 -1.669502 0.042999 -0.758411 0.000000 0.000000 0.000000 
-1788.368774 850.262695 1061.161011 5.691453 2.244570 1.292421 -0.266948 -3.719019 -2.279797 -0.021519 0.606167 0.511282 -0.083219 -0.677180 -0.317127 -0.369656 -3.708235 1.105474 0.000000 0.000000 0.000000 -1.531639 2.000496 1.411945 0.283911 1.815338 1.823012 -0.593158 0.262719 -3.065282 0.000000 0.000000 0.000000 -0.623496 1.976212 -0.399853 0.549977 2.117284 1.742813 0.210291 0.757760 0.725154 0.000000 0.000000 0.000000 -0.231742 -1.444248 0.455691 -0.126633 1.091990 0.055784 -0.197205 -1.946146 -0.198184 0.000000 0.000000 0.000000 -1.673372 -3.379308 -3.432535 -1.682528 1.067576 0.552696 -1.661983 0.033078 -0.753093 0.000000 0.000000 0.000000 
-1788.345337 850.240173 1061.161987 5.663216 2.236804 1.292966 -0.266588 -3.717879 -2.276210 -0.021502 0.607260 0.510533 -0.083078 -0.678456 -0.316190 -0.365026 -3.708387 1.096243 0.000000 0.000000 0.000000 -1.524483 1.944700 1.418569 0.301122 1.759718 1.873364 -0.542253 0.076519 -2.934621 0.000000 0.000000 0.000000 -0.625595 1.937637 -0.408050 0.547936 2.078867 1.729384 0.187438 0.638982 0.660785 0.000000 0.000000 0.000000 -0.222416 -1.434779 0.454072 -0.117922 1.089102 0.057866 -0.188507 -1.943048 -0.194180 0.000000 0.000000 0.000000 -1.662945 -3.364151 -3.435994 -1.673893 1.065124 0.559788 -1.653337 0.028090 -0.748238 0.000000 0.000000 0.000000 
